<?xml version="1.0" standalone="no"?>
<!DOCTYPE svg PUBLIC "-//W3C//DTD SVG 20010904//EN"
 "http://www.w3.org/TR/2001/REC-SVG-20010904/DTD/svg10.dtd">
<svg version="1.0" xmlns="http://www.w3.org/2000/svg"
 width="300.000000pt" height="300.000000pt" viewBox="0 0 300.000000 300.000000"
 preserveAspectRatio="xMidYMid meet">
<metadata>
Created by potrace 1.10, written by Peter Selinger 2001-2011
</metadata>
<g transform="translate(0.000000,300.000000) scale(0.100000,-0.100000)"
fill="#000000" stroke="none">
<path d="M1435 2053 c-44 -6 -85 -24 -85 -38 0 -6 -11 -17 -24 -24 -13 -7 -30
-24 -37 -37 -7 -13 -18 -24 -24 -24 -29 0 -35 -53 -35 -314 0 -261 0 -263 23
-284 22 -21 31 -22 249 -22 207 0 228 2 249 19 l24 19 3 326 3 327 -30 29 -29
30 -129 -1 c-70 -1 -141 -4 -158 -6z m-15 -113 l0 -80 -80 0 c-64 0 -80 3 -80
15 0 8 7 15 15 15 8 0 15 5 15 10 0 6 7 10 15 10 8 0 15 5 15 11 0 6 16 25 35
43 19 19 35 38 35 45 0 6 7 11 15 11 12 0 15 -16 15 -80z m320 -255 l0 -335
-237 0 -238 0 0 246 0 245 90 -2 90 -2 -1 92 -1 91 149 0 148 0 0 -335z"/>
<path d="M1305 1691 c-10 -9 -4 -21 10 -21 8 0 15 -7 15 -15 0 -8 7 -15 15
-15 8 0 15 -4 15 -10 0 -5 18 -10 41 -10 24 0 38 4 34 10 -3 6 1 10 9 10 9 0
16 7 16 15 0 11 11 15 40 15 22 0 40 -5 40 -11 0 -21 29 -39 64 -39 20 0 36 5
36 10 0 6 7 10 15 10 8 0 15 7 15 15 0 8 7 15 15 15 8 0 12 6 10 13 -4 9 -53
12 -195 13 -105 0 -193 -2 -195 -5z"/>
<path d="M1430 1555 c0 -8 7 -15 15 -15 8 0 15 -7 15 -15 0 -11 11 -15 40 -15
29 0 40 4 40 15 0 8 7 15 15 15 8 0 15 7 15 15 0 8 -7 15 -15 15 -8 0 -15 -7
-15 -15 0 -11 -11 -15 -40 -15 -29 0 -40 4 -40 15 0 8 -7 15 -15 15 -8 0 -15
-7 -15 -15z"/>
<path d="M2014 1887 l-164 -164 0 -84 c1 -127 7 -133 157 -139 l118 -5 5 -68
c4 -60 8 -70 35 -92 35 -28 55 -31 94 -10 35 18 41 32 41 98 0 60 6 72 40 80
36 9 64 60 56 102 -7 33 -46 75 -71 75 -20 0 -25 35 -25 183 0 136 0 138 -26
162 -18 17 -39 25 -61 25 -31 0 -51 -16 -199 -163z m251 -64 l0 -188 48 3 47
4 0 -51 0 -51 -51 0 -51 0 3 -92 4 -91 -47 -2 -48 -2 0 93 0 94 -140 0 -140 0
0 95 c0 95 0 95 25 95 20 0 25 5 25 24 0 20 4 22 26 18 25 -4 26 -3 20 22 -6
23 -3 26 19 26 20 0 25 5 25 25 0 20 5 25 25 25 20 0 25 5 25 24 0 20 4 22 26
18 23 -4 24 -2 18 22 -5 23 -3 26 20 26 21 0 26 5 26 25 0 23 4 25 48 25 l47
0 0 -187z"/>
<path d="M2126 1794 c6 -25 5 -26 -20 -22 -23 5 -26 2 -26 -22 0 -24 -3 -27
-25 -22 -22 4 -25 1 -25 -22 0 -21 -5 -26 -26 -26 -20 0 -25 -4 -22 -22 3 -20
9 -21 96 -22 l92 -1 0 93 c0 92 0 92 -25 92 -22 0 -25 -3 -19 -26z m2 -91 c-4
-22 -38 -30 -38 -10 0 14 13 24 33 26 5 1 7 -7 5 -16z"/>
<path d="M925 2028 c-11 -6 -86 -77 -167 -157 l-148 -146 0 -91 c0 -131 6
-136 154 -142 l114 -4 4 -64 c5 -80 32 -114 89 -114 29 0 43 7 63 31 22 25 26
41 26 89 0 52 3 59 23 66 41 13 67 46 67 87 0 42 -30 83 -65 89 -19 3 -20 13
-25 167 -5 156 -6 164 -29 182 -26 21 -75 24 -106 7z m95 -213 l0 -185 45 0
45 0 0 -48 0 -47 -45 3 -45 4 0 -96 0 -96 -50 0 -50 0 6 95 7 96 -142 -2 -143
-1 0 93 c0 90 1 94 21 91 17 -3 21 2 21 22 0 21 5 26 25 26 20 0 25 5 25 26 0
23 3 25 26 20 24 -6 26 -5 22 18 -4 22 -2 26 18 26 19 0 24 5 24 25 0 20 5 25
25 25 20 0 25 5 25 25 0 20 5 24 23 22 17 -2 22 3 20 21 -3 20 1 22 47 22 l50
0 0 -185z"/>
<path d="M880 1795 c0 -20 -5 -25 -25 -25 -20 0 -25 -5 -25 -25 0 -18 -5 -25
-20 -25 -15 0 -20 -7 -20 -25 0 -22 -3 -25 -25 -19 -22 5 -25 3 -25 -20 l0
-26 95 0 95 0 0 95 c0 95 0 95 -25 95 -20 0 -25 -5 -25 -25z m-11 -116 c-23
-14 -31 2 -12 23 16 18 18 19 21 3 2 -10 -2 -21 -9 -26z"/>
<path d="M1520 1172 c-18 -14 -32 -17 -59 -12 -20 3 -48 3 -62 -1 -15 -4 -46
-3 -70 1 -50 9 -81 0 -103 -32 -22 -31 -20 -52 10 -87 22 -26 29 -29 50 -20
14 5 30 6 36 3 6 -4 37 -9 70 -11 44 -3 67 1 85 12 20 14 29 14 58 4 32 -12
37 -11 60 11 14 13 24 28 23 34 -1 6 3 21 10 32 10 19 7 26 -18 53 -34 35 -58
39 -90 13z m60 -27 c0 -8 7 -15 15 -15 8 0 15 -4 15 -10 0 -5 -7 -10 -15 -10
-10 0 -15 -10 -15 -30 0 -23 -4 -30 -20 -30 -16 0 -20 7 -20 30 0 20 -5 30
-15 30 -8 0 -15 5 -15 10 0 6 7 10 15 10 8 0 15 7 15 15 0 8 9 15 20 15 11 0
20 -7 20 -15z m-226 -31 c11 -29 7 -64 -9 -64 -10 0 -15 10 -15 30 0 25 -4 30
-23 30 -20 0 -23 -4 -19 -30 4 -25 1 -30 -17 -30 -18 0 -21 6 -21 40 l0 40 49
0 c35 0 51 -4 55 -16z m122 2 c34 -34 5 -69 -52 -64 -31 2 -39 8 -44 28 -3 14
-1 30 5 37 14 17 73 16 91 -1z"/>
<path d="M1410 1090 c0 -13 7 -20 20 -20 13 0 20 7 20 20 0 13 -7 20 -20 20
-13 0 -20 -7 -20 -20z"/>
<path d="M1760 1160 c-31 -26 -33 -32 -22 -50 6 -11 12 -28 12 -39 0 -11 12
-29 26 -40 24 -19 28 -19 54 -6 24 12 30 12 39 1 10 -11 41 -13 149 -10 75 2
144 4 152 4 8 1 49 -2 91 -5 74 -6 77 -6 98 21 38 49 20 154 -28 154 -9 0 -35
-9 -57 -19 -32 -15 -49 -17 -90 -11 -29 5 -69 4 -90 0 -22 -5 -55 -7 -74 -5
-19 3 -59 7 -88 9 -30 2 -59 9 -65 15 -21 21 -71 12 -107 -19z m90 -10 c0 -5
-8 -11 -17 -11 -17 -1 -17 -2 0 -6 21 -5 23 -23 2 -23 -10 0 -15 -10 -15 -30
0 -20 -5 -30 -15 -30 -10 0 -15 10 -15 30 0 23 -4 30 -20 30 -11 0 -20 5 -20
10 0 6 9 10 20 10 11 0 23 7 26 15 7 17 54 21 54 5z m490 -45 l0 -55 -43 0
c-44 0 -67 13 -67 38 0 22 26 42 54 42 16 0 26 6 26 15 0 8 7 15 15 15 12 0
15 -13 15 -55z m-374 0 c10 -41 -1 -55 -44 -55 -39 0 -62 14 -62 37 0 25 25
42 62 43 32 0 39 -4 44 -25z m54 -5 c0 -25 4 -30 23 -30 20 0 23 4 19 30 -4
25 -1 30 17 30 18 0 21 -6 21 -41 l0 -40 -52 3 -53 3 -3 38 c-2 28 0 37 12 37
11 0 16 -9 16 -30z m188 18 c20 -20 15 -68 -6 -68 -15 0 -18 6 -14 30 4 27 2
30 -23 30 -25 0 -27 -3 -23 -30 4 -24 1 -30 -14 -30 -14 0 -18 8 -18 40 l0 40
43 0 c24 0 48 -5 55 -12z"/>
<path d="M2270 1090 c0 -13 7 -20 20 -20 13 0 20 7 20 20 0 13 -7 20 -20 20
-13 0 -20 -7 -20 -20z"/>
<path d="M1900 1090 c0 -13 7 -20 20 -20 13 0 20 7 20 20 0 13 -7 20 -20 20
-13 0 -20 -7 -20 -20z"/>
<path d="M630 1148 c-34 -28 -35 -97 -3 -130 20 -20 25 -20 48 -8 29 15 55 15
175 1 88 -11 222 -5 252 11 43 22 56 87 24 117 -25 23 -48 26 -221 22 -27 0
-63 0 -80 0 -16 0 -43 -1 -60 -3 -16 -1 -48 1 -70 4 -32 6 -45 3 -65 -14z
m113 -39 c14 -22 -12 -49 -47 -49 -16 0 -26 -6 -26 -15 0 -8 -7 -15 -15 -15
-11 0 -15 12 -15 51 l0 50 46 -3 c30 -2 51 -9 57 -19z m121 5 c3 -9 6 -27 6
-40 0 -22 -4 -24 -42 -24 -57 0 -77 12 -56 33 8 9 28 17 44 20 29 4 29 4 -3 6
-47 2 -41 21 6 21 26 0 41 -5 45 -16z m126 -18 c0 -56 -8 -66 -51 -66 -21 0
-39 5 -39 10 0 6 14 10 30 10 17 0 30 4 30 10 0 5 -13 7 -28 4 -23 -5 -30 -1
-39 18 -14 32 2 47 55 48 41 0 42 -1 42 -34z m118 22 c24 -24 13 -38 -30 -39
-34 -2 -37 -3 -13 -6 51 -8 53 -23 3 -23 -38 0 -48 4 -53 20 -12 39 3 60 44
60 20 0 42 -5 49 -12z"/>
<path d="M670 1095 c0 -9 9 -15 25 -15 16 0 25 6 25 15 0 9 -9 15 -25 15 -16
0 -25 -6 -25 -15z"/>
<path d="M920 1095 c0 -8 9 -15 20 -15 11 0 20 7 20 15 0 8 -9 15 -20 15 -11
0 -20 -7 -20 -15z"/>
</g>
</svg>
